<svg width="24" height="24" viewBox="0 0 24 24" fill="none" xmlns="http://www.w3.org/2000/svg">
<path d="M12.1583 22.6392C13.508 22.6392 14.7047 21.9901 15.6933 21.0958C16.6843 20.1993 17.5413 18.9919 18.2409 17.6983C19.6306 15.1286 20.5165 11.9952 20.5165 9.75811C20.5165 5.142 16.7744 1.3999 12.1583 1.3999C7.54214 1.3999 3.80005 5.142 3.80005 9.75811C3.80005 11.9952 4.68595 15.1286 6.0756 17.6983C6.77518 18.9919 7.63217 20.1993 8.62325 21.0958C9.61183 21.9901 10.8085 22.6392 12.1583 22.6392Z" stroke="black" stroke-width="2"/>
<path d="M12.3935 8.03601C12.7813 8.11038 13.1385 8.29715 13.42 8.57286C13.5968 8.76625 13.7388 8.98841 13.84 9.22966C13.9696 9.53233 14.0217 9.86225 13.9918 10.1899C13.9619 10.5175 13.8508 10.8327 13.6685 11.1071C13.4862 11.3816 13.2384 11.6068 12.9472 11.7626C12.656 11.9184 12.3306 12 12 12C11.6694 12 11.344 11.9184 11.0528 11.7626C10.7616 11.6068 10.5138 11.3816 10.3315 11.1071C10.1492 10.8327 10.0381 10.5175 10.0082 10.1899C9.97828 9.86225 10.0304 9.53233 10.16 9.22966C10.2498 8.98267 10.3931 8.75837 10.5798 8.57263C10.7664 8.3869 10.9918 8.24429 11.24 8.1549C11.6043 8.00301 12.0056 7.96165 12.3935 8.03601Z" fill="black"/>
</svg>
