<svg width="24" height="24" viewBox="0 0 24 24" fill="none" xmlns="http://www.w3.org/2000/svg">
<path d="M8.71004 14.29C8.56927 14.1515 8.39071 14.0576 8.19678 14.0203C8.00284 13.9829 7.8022 14.0037 7.62004 14.08C7.49594 14.1249 7.38324 14.1966 7.28992 14.2899C7.1966 14.3832 7.12495 14.4959 7.08004 14.62C7.01525 14.7721 6.98918 14.9378 7.00415 15.1025C7.01911 15.2671 7.07465 15.4254 7.1658 15.5633C7.25694 15.7012 7.38085 15.8144 7.52643 15.8927C7.67202 15.9709 7.83474 16.0119 8.00004 16.0119C8.16534 16.0119 8.32806 15.9709 8.47364 15.8927C8.61923 15.8144 8.74313 15.7012 8.83428 15.5633C8.92543 15.4254 8.98097 15.2671 8.99593 15.1025C9.0109 14.9378 8.98482 14.7721 8.92004 14.62C8.86945 14.4988 8.79842 14.3872 8.71004 14.29ZM16.71 14.29C16.5167 14.1116 16.2632 14.0125 16 14.0125C15.7369 14.0125 15.4834 14.1116 15.29 14.29C15.2017 14.3872 15.1306 14.4988 15.08 14.62C15.0021 14.8019 14.9805 15.0029 15.0179 15.1972C15.0553 15.3915 15.1501 15.5701 15.29 15.71C15.3872 15.7984 15.4988 15.8694 15.62 15.92C15.7398 15.9728 15.8692 16.0001 16 16.0001C16.1309 16.0001 16.2603 15.9728 16.38 15.92C16.5011 15.8692 16.6127 15.7982 16.71 15.71C16.85 15.5701 16.9447 15.3915 16.9822 15.1972C17.0196 15.0029 16.998 14.8019 16.92 14.62C16.8694 14.4988 16.7984 14.3872 16.71 14.29ZM19.31 18.895C20.0179 18.3307 20.5582 17.5838 20.8726 16.7348C21.187 15.8859 21.2636 14.9673 21.094 14.078L19.594 6.078C19.379 4.93192 18.7702 3.89703 17.8728 3.15236C16.9755 2.40768 15.8461 2.00006 14.68 2H9.31904C8.15313 2.00029 7.02398 2.40802 6.12685 3.15267C5.22972 3.89733 4.62103 4.93208 4.40604 6.078L2.90604 14.078C2.73662 14.9673 2.81334 15.8861 3.12792 16.735C3.4425 17.5839 3.98299 18.3308 4.69104 18.895L3.29304 20.293C3.19753 20.3852 3.12135 20.4956 3.06894 20.6176C3.01653 20.7396 2.98894 20.8708 2.98779 21.0036C2.98663 21.1364 3.01194 21.2681 3.06222 21.391C3.1125 21.5138 3.18675 21.6255 3.28064 21.7194C3.37454 21.8133 3.48619 21.8875 3.60908 21.9378C3.73198 21.9881 3.86366 22.0134 3.99644 22.0123C4.12922 22.0111 4.26044 21.9835 4.38244 21.9311C4.50445 21.8787 4.61479 21.8025 4.70704 21.707L6.57704 19.837C6.98226 19.943 7.39918 19.9978 7.81804 20H16.18C16.5995 19.9983 17.0171 19.9439 17.423 19.838L19.292 21.707C19.4806 21.8892 19.7332 21.99 19.9954 21.9877C20.2576 21.9854 20.5084 21.8802 20.6939 21.6948C20.8793 21.5094 20.9844 21.2586 20.9867 20.9964C20.989 20.7342 20.8882 20.4816 20.706 20.293L19.31 18.895ZM6.37004 6.447C6.49942 5.75922 6.86504 5.13825 7.4037 4.69144C7.94235 4.24463 8.62019 4.00006 9.32004 4H14.682C15.3815 4.00052 16.0589 4.24531 16.5971 4.69208C17.1354 5.13885 17.5007 5.75955 17.63 6.447L17.977 8.297C17.2305 9.14672 16.3113 9.82745 15.2808 10.2938C14.2502 10.7601 13.1321 11.0013 12.001 11.0013C10.8699 11.0013 9.75183 10.7601 8.72133 10.2938C7.69083 9.82745 6.77162 9.14672 6.02504 8.297L6.37004 6.447ZM18.487 16.916C18.2062 17.2554 17.8539 17.5285 17.4553 17.7159C17.0566 17.9033 16.6215 18.0003 16.181 18H7.81904C7.37827 17.9999 6.94293 17.9027 6.544 17.7153C6.14506 17.5279 5.79232 17.2548 5.51087 16.9156C5.22942 16.5764 5.02617 16.1794 4.91559 15.7527C4.805 15.326 4.78979 14.8802 4.87104 14.447L5.58204 10.655C7.37761 12.1696 9.65098 13.0004 12 13.0004C14.3491 13.0004 16.6225 12.1696 18.418 10.655L19.128 14.447C19.21 14.8803 19.1952 15.3263 19.0845 15.7532C18.9739 16.18 18.7702 16.5771 18.488 16.916" fill="black"/>
</svg>
