<svg width="55" height="65" viewBox="0 0 55 65" fill="none" xmlns="http://www.w3.org/2000/svg">
<g filter="url(#filter0_d_63_4047)">
<path d="M27.5938 8.4375C22.5564 8.44317 17.727 10.4317 14.165 13.9669C10.6031 17.5022 8.59946 22.2953 8.59375 27.2948C8.59375 34.0235 11.7266 41.155 17.6619 47.92C20.3289 50.977 23.3305 53.7297 26.6114 56.1273C26.9018 56.3292 27.2478 56.4375 27.6024 56.4375C27.957 56.4375 28.303 56.3292 28.5934 56.1273C31.8682 53.7287 34.864 50.976 37.5256 47.92C43.4523 41.155 46.5938 34.0235 46.5938 27.2948C46.588 22.2953 44.5844 17.5022 41.0225 13.9669C37.4605 10.4317 32.6311 8.44317 27.5938 8.4375Z" fill="#ED3F0A"/>
</g>
<path fill-rule="evenodd" clip-rule="evenodd" d="M37.363 15.6412L29.3292 15.6412C27.1404 15.6365 24.9648 16.029 22.9308 16.8369C19.3428 18.2619 14.9462 21.3231 14.5551 27.8024C14.1791 34.0368 18.3235 37.1007 21.8114 38.5684C23.8389 39.4218 26.0217 39.8432 28.2216 39.8432H37.363V37.9469L37.3316 35.9832L26.6643 35.8232C26.5182 35.8213 26.372 35.8199 26.2258 35.8213C25.3698 35.8292 20.8586 35.6843 19.7689 32.6204C19.3165 31.3502 19.7504 29.9326 20.8125 29.1022C21.8865 28.2633 22.6655 27.838 25.6799 27.7794L37.363 27.7795V15.6412Z" fill="#FFFCF9"/>
<defs>
<filter id="filter0_d_63_4047" x="0.59375" y="0.4375" width="54" height="64" filterUnits="userSpaceOnUse" color-interpolation-filters="sRGB">
<feFlood flood-opacity="0" result="BackgroundImageFix"/>
<feColorMatrix in="SourceAlpha" type="matrix" values="0 0 0 0 0 0 0 0 0 0 0 0 0 0 0 0 0 0 127 0" result="hardAlpha"/>
<feOffset/>
<feGaussianBlur stdDeviation="4"/>
<feComposite in2="hardAlpha" operator="out"/>
<feColorMatrix type="matrix" values="0 0 0 0 0 0 0 0 0 0 0 0 0 0 0 0 0 0 0.1 0"/>
<feBlend mode="normal" in2="BackgroundImageFix" result="effect1_dropShadow_63_4047"/>
<feBlend mode="normal" in="SourceGraphic" in2="effect1_dropShadow_63_4047" result="shape"/>
</filter>
</defs>
</svg>
