<?xml version="1.0" standalone="no"?>
<!DOCTYPE svg PUBLIC "-//W3C//DTD SVG 20010904//EN"
 "http://www.w3.org/TR/2001/REC-SVG-20010904/DTD/svg10.dtd">
<svg version="1.0" xmlns="http://www.w3.org/2000/svg"
 width="700.000000pt" height="700.000000pt" viewBox="0 0 700.000000 700.000000"
 preserveAspectRatio="xMidYMid meet">
<metadata>
Created by potrace 1.14, written by Peter Selinger 2001-2017
</metadata>
<g transform="translate(0.000000,700.000000) scale(0.100000,-0.100000)"
fill="#000000" stroke="none">
<path d="M4357 6244 c-1 -1 -99 -4 -217 -8 -218 -6 -265 -9 -400 -27 -41 -6
-91 -12 -110 -15 -129 -17 -408 -80 -549 -125 -509 -162 -956 -404 -1297 -704
-107 -94 -237 -229 -309 -320 -22 -27 -42 -52 -45 -55 -3 -3 -23 -30 -45 -60
-333 -453 -511 -1034 -509 -1660 1 -124 11 -275 24 -345 5 -27 12 -66 14 -85
28 -183 92 -381 186 -576 208 -430 554 -783 1042 -1063 58 -33 111 -61 116
-61 5 0 20 -8 33 -18 31 -24 274 -130 414 -181 192 -70 501 -151 670 -175 23
-4 51 -8 64 -11 13 -2 46 -7 75 -10 223 -26 369 -29 1461 -30 l1110 0 0 398
c0 219 -2 417 -3 440 l-4 43 -91 1 c-51 1 -272 4 -492 8 -220 3 -512 8 -650
10 -137 2 -461 7 -720 10 -547 7 -754 12 -810 19 -22 3 -62 8 -90 11 -27 3
-63 7 -80 10 -16 3 -55 10 -85 15 -87 16 -95 17 -174 40 -458 128 -743 369
-834 704 -17 64 -22 250 -8 315 29 141 109 284 208 377 66 62 215 167 286 203
75 38 220 87 282 96 24 4 47 8 50 10 4 3 43 8 140 21 31 4 188 16 255 19 28 2
674 3 1438 4 l1387 1 0 1385 0 1385 -62 0 c-35 0 -424 1 -866 3 -442 1 -804 1
-805 1z"/>
</g>
</svg>
