<svg width="21" height="21" viewBox="0 0 21 21" fill="none" xmlns="http://www.w3.org/2000/svg">
<path d="M2.47672 7.87978L16.2181 2.78212L16.2377 2.77509C16.5147 2.67923 16.8132 2.66326 17.0989 2.729C17.3846 2.79474 17.6461 2.93954 17.8534 3.14685C18.0607 3.35417 18.2055 3.61563 18.2712 3.90135C18.337 4.18707 18.321 4.48552 18.2252 4.76259L18.2181 4.78212L13.1205 18.5235C13.0124 18.8275 12.8129 19.0905 12.5494 19.2766C12.2858 19.4626 11.9712 19.5625 11.6486 19.5626H11.6212C11.2917 19.5569 10.9724 19.4471 10.7091 19.249C10.4457 19.0508 10.2517 18.7745 10.1548 18.4595L8.36344 12.6368L2.54078 10.8454C2.22578 10.7496 1.9491 10.5567 1.75022 10.2943C1.55134 10.0319 1.44044 9.7134 1.43334 9.38423C1.42624 9.05506 1.52329 8.73206 1.71067 8.46132C1.89804 8.19059 2.16615 7.98596 2.47672 7.87665V7.87978ZM9.07281 10.8907C9.31723 10.9655 9.53957 11.0992 9.72032 11.2799C9.90107 11.4607 10.0347 11.683 10.1095 11.9274L11.672 17.0274L16.2189 4.78134L3.97281 9.32821L9.07281 10.8907Z" fill="#FFFCF9"/>
</svg>
