<svg width="107" height="21" viewBox="0 0 107 21" fill="none" xmlns="http://www.w3.org/2000/svg">
<path d="M101.856 5.88221C98.6212 5.80778 98.108 9.4113 98.0533 10.6766C98.0477 10.8091 97.9379 10.9129 97.8051 10.9118C97.67 10.9107 97.5609 10.8009 97.5609 10.6658L97.5587 6.36935H92.9913L92.9935 12.2661C92.9935 12.2661 89.2512 12.7279 87.4377 11.7201C87.4377 11.7201 86.5073 11.1087 86.0317 10.3074C85.9569 10.1817 85.9919 10.0194 86.1121 9.93566C86.2427 9.84448 86.4225 9.88133 86.5077 10.0157C86.8352 10.5337 87.776 11.6289 89.7607 11.3595C92.3378 11.0093 92.3698 9.18541 92.3698 9.18541C92.3698 9.18541 92.6817 7.50292 91.1384 6.57031C90.9188 6.43783 90.6661 6.36935 90.4097 6.36935H76.376C75.8174 6.36935 75.2606 6.44416 74.724 6.60009C73.8665 6.84943 72.7765 7.36299 72.1833 8.4132C72.1833 8.4132 71.6128 9.22486 71.6244 10.7257C71.6255 10.8738 71.506 10.9955 71.3579 10.9955C71.2113 10.9955 71.0918 10.8772 71.0911 10.7306C71.0862 9.70083 70.8525 6.01656 67.7633 5.89524C67.7633 5.89524 65.0161 5.70135 64.1884 8.25503C64.1884 8.25503 63.8803 9.71609 63.7854 10.7983C63.7757 10.9103 63.6812 10.9959 63.5688 10.9959H63.542C63.4121 10.9959 63.3098 10.885 63.321 10.7555C63.401 9.80615 63.6853 6.3701 63.6079 6.3701H58.8012L58.7926 10.8258C58.7681 11.0164 58.6174 10.9996 58.5619 10.9978L58.5332 10.9955C58.4231 10.9877 58.3606 10.8973 58.349 10.8236C58.2742 10.3443 58.1291 8.10171 56.5642 6.954C56.038 6.56808 55.3968 6.37084 54.744 6.37084H46.294L46.297 11.2237C46.297 11.6874 45.6357 11.7882 45.5069 11.3431C45.479 11.2467 45.4593 11.1344 45.4507 11.0026C45.4016 10.246 45.4541 3.31215 45.4541 3.31215H39.9771L39.9236 10.8724C39.9224 11.0235 39.9012 11.1745 39.8532 11.3178C39.7632 11.5869 39.5466 11.8768 39.1111 11.8656C38.3665 11.8459 38.3404 11.3327 38.2779 10.7935C38.2091 10.1995 38.2708 3.31252 38.2708 3.31252H32.8281L32.9413 10.783C32.9457 10.9602 32.8825 11.1012 32.7061 11.1157C32.5982 11.1247 32.4865 11.0804 32.4173 10.9051C32.3994 10.8593 32.3939 10.8098 32.3983 10.7607C32.4381 10.2966 32.6261 7.54721 31.6719 6.64512C31.4799 6.46351 31.2208 6.3701 30.957 6.3701H27.5957L27.7543 10.8854C27.7602 11.0577 27.5991 11.1976 27.4335 11.1504C27.3378 11.1232 27.2552 11.0372 27.2437 10.8281C27.2139 10.2955 27.5838 6.01953 24.1217 6.06419C20.8014 6.10662 20.4613 9.27882 20.3619 10.7916C20.3552 10.8936 20.2674 10.971 20.1654 10.9643L20.1181 10.9613C19.9905 10.9531 19.8934 10.8456 19.8989 10.7187C19.9514 9.45001 20.2011 3.31215 20.2011 3.31215L9.77647 3.28982C8.53945 3.28721 7.30987 3.50901 6.1603 3.96564C4.13246 4.77097 1.64762 6.50109 1.42656 10.163C1.21406 13.6866 3.55637 15.4182 5.52765 16.2477C6.67349 16.73 7.90717 16.9682 9.15052 16.9682H14.3342L14.2992 14.7866L8.27039 14.6962C8.18777 14.6951 8.10515 14.6943 8.02254 14.6951C7.53874 14.6995 4.98915 14.6177 4.37324 12.8861C4.11757 12.1682 4.36282 11.3669 4.9631 10.8977C5.57007 10.4235 6.01032 10.1831 7.71402 10.15H15.4075L15.6642 16.9682H20.5718L20.5952 13.0245C20.5967 12.7956 20.6358 12.5679 20.7206 12.3557C20.8509 12.0301 21.1103 11.6583 21.6164 11.6583C22.0946 11.6583 22.3611 11.9758 22.5058 12.2731C22.6134 12.4942 22.6655 12.7383 22.6703 12.9839L22.744 16.9682H27.4584L27.4018 14.1815C27.3977 13.9962 27.5663 13.8477 27.7591 13.889C27.8923 13.9173 27.9846 14.039 27.9872 14.1748C27.9995 14.832 28.0334 16.4274 28.1536 16.9682L32.9923 16.9492L32.8769 14.1115C32.8717 13.9843 32.9737 13.8778 33.1013 13.8778C33.22 13.8778 33.3179 13.9701 33.3253 14.0888C33.3678 14.7609 33.7399 16.8141 36.6899 16.9138C40.2202 17.0337 39.9012 16.9339 39.9012 16.9339L39.912 14.0684C39.9124 13.9631 39.998 13.8782 40.1029 13.8782C40.1967 13.8782 40.2767 13.9456 40.2924 14.0379C40.3731 14.5153 40.6005 15.7148 42.0638 16.4535C42.4709 16.6589 42.9138 16.7828 43.3674 16.8305C44.1493 16.9123 45.7596 17.0419 47.2512 16.9138L47.2411 11.6587H51.1111C51.1111 11.6587 52.7076 11.5754 53.7094 12.8957C53.7705 12.9761 53.7917 13.0368 53.804 13.0807C53.8285 13.1674 53.7586 13.2057 53.7225 13.2389C53.66 13.2887 53.5699 13.2817 53.5152 13.2236C53.1002 12.7826 51.7836 11.681 49.6143 12.3074C49.6143 12.3074 47.8991 12.786 47.8991 14.8004C47.8991 16.8148 49.774 17.5926 50.9704 17.433C52.1673 17.2733 53.0448 16.5555 53.8025 15.0795C53.8025 15.0795 53.8583 14.956 53.9752 15.0002C54.0351 15.0229 54.0585 15.046 54.0593 15.1104L54.0775 16.9689H64.0638L64.1319 12.9679C64.1341 12.8325 64.1523 12.6978 64.1881 12.5671C64.2815 12.2277 64.5275 11.7015 65.1512 11.7287C66.0685 11.7685 66.0886 12.8455 66.0886 12.8455L66.0808 16.9685H71.148L71.1543 14.0602C71.1543 13.9619 71.2343 13.8823 71.3326 13.8823C71.4081 13.8823 71.4855 13.9422 71.5041 14.0155C71.6534 14.6113 72.0237 16.9685 74.8691 16.9685H82.528L82.5205 14.7643H75.6197C75.6197 14.7643 73.8178 14.7989 73.8878 13.0848C73.951 11.5273 76.5025 11.6587 76.5025 11.6587H81.8625C81.8625 11.6587 82.3244 14.1421 84.4587 15.4982C85.8877 16.4066 87.335 16.7575 88.1351 16.8908C88.4522 16.9436 88.7734 16.9689 89.0949 16.9689H98.3581L98.4202 12.8459C98.4202 12.8459 98.46 11.6892 99.3975 11.709C100.335 11.729 100.235 12.786 100.235 12.786V13.883H105.042V10.1135C105.042 10.1135 105.327 5.96371 101.857 5.88407L101.856 5.88221ZM88.6721 7.17096C89.5102 7.11812 90.2009 7.80883 90.1481 8.64691C90.1045 9.33799 89.5437 9.89882 88.8526 9.94236C88.0145 9.9952 87.3238 9.3045 87.3767 8.46642C87.4202 7.77533 87.981 7.2145 88.6721 7.17096ZM51.4643 15.8651C50.6262 15.918 49.9355 15.2273 49.9883 14.3892C50.0319 13.6981 50.5927 13.1373 51.2838 13.0937C52.1219 13.0409 52.8126 13.7316 52.7597 14.5697C52.7162 15.2607 52.1554 15.8216 51.4643 15.8651Z" fill="#ED3F0A"/>
<path d="M28.8016 5.66394C29.5684 5.66394 30.1901 5.04229 30.1901 4.27545C30.1901 3.50861 29.5684 2.88696 28.8016 2.88696C28.0347 2.88696 27.4131 3.50861 27.4131 4.27545C27.4131 5.04229 28.0347 5.66394 28.8016 5.66394Z" fill="#ED3F0A"/>
</svg>
