<svg width="44" height="42" viewBox="0 0 44 42" fill="none" xmlns="http://www.w3.org/2000/svg">
<path d="M20.2522 1.14197C21.0145 -0.228376 22.9855 -0.228376 23.7478 1.14197L29.4247 11.3474C29.7111 11.8622 30.2099 12.2245 30.788 12.3378L42.2481 14.5833C43.787 14.8848 44.396 16.7593 43.3283 17.9077L35.3767 26.4605C34.9756 26.8919 34.7851 27.4782 34.856 28.063L36.2618 39.6562C36.4506 41.2129 34.856 42.3714 33.4338 41.7108L22.8425 36.7913C22.3083 36.5432 21.6917 36.5432 21.1575 36.7913L10.5662 41.7108C9.14399 42.3714 7.54942 41.2129 7.73819 39.6562L9.14401 28.063C9.21493 27.4782 9.02442 26.8919 8.62331 26.4605L0.671685 17.9077C-0.396034 16.7593 0.213038 14.8848 1.75187 14.5833L13.212 12.3378C13.7901 12.2245 14.2889 11.8622 14.5753 11.3474L20.2522 1.14197Z" fill="#DEDEDE"/>
</svg>
